<svg xmlns="http://www.w3.org/2000/svg" viewBox="0 0 64 64" role="img" aria-label="UNICEPLAC">
  <rect width="64" height="64" rx="14" fill="#f1f3f2"/>
  <path d="M32 9l6 12-6 10-6-10 6-12z" fill="#ed7f3b"/>
  <path d="M55 23l-12 5-11-3 3-11 12-5 8 14z" fill="#ed7f3b"/>
  <path d="M9 23l12-5 11 3-3 11-12 5-8-14z" fill="#ed7f3b"/>
  <path d="M32 55l-6-12 6-10 6 10-6 12z" fill="#99c5b3"/>
  <path d="M55 41l-12-5-11 3 3 11 12 5 8-14z" fill="#99c5b3"/>
  <path d="M9 41l12 5 11-3-3-11-12-5-8 14z" fill="#99c5b3"/>
  <circle cx="32" cy="32" r="5" fill="#0b7f53"/>
</svg>
